<?xml version="1.0"?><svg width="800" height="400" xmlns="http://www.w3.org/2000/svg">
 <!-- Created with SVG-edit - http://svg-edit.googlecode.com/ -->
 <g>
  <title>Layer 1</title>
  <path transform="rotate(-0.674047 399.299 481.48)" d="m772.991089,533.781494c-16.265198,0 -41.985352,-15.922974 -55.888062,-33.288269c-14.538696,-18.109375 -15.622192,-32.776672 -32.614441,-32.776672c-16.810547,0 -15.075806,4.667297 -29.341919,22.776672c-14.175293,17.365295 -45.804504,33.288269 -62.160645,33.288269c-16.356079,0 -35.040955,2.112549 -49.125488,-15.252838c-14.357056,-18.109375 -30.566589,-37.812103 -47.377075,-37.812103c-16.992157,0 -27.166534,16.667297 -41.614471,34.776672c-13.902679,17.365295 -38.713593,22.288269 -55.069794,22.288269c-16.265259,0 -33.076141,1.077026 -47.069702,-16.288269c-14.447937,-18.109375 -26.622314,-31.776672 -43.43277,-31.776672c-16.992249,0 -32.166626,10.667297 -46.523712,28.776672c-13.99353,17.365295 -25.713623,23.288269 -41.978882,23.288269c-16.446976,0 -37.167068,-2.922974 -51.251495,-20.288574c-14.26619,-18.109314 -34.531433,-34.776611 -51.43277,-34.776611c-16.810471,0 -29.075722,14.667297 -43.432785,32.776611c-13.993607,17.365601 -33.713657,26.288574 -50.069748,26.288574l1,-52.537415c16.356091,0 32.076141,-10.171082 46.069748,-27.288239c14.357063,-18.109406 30.622314,-28.776642 47.432785,-28.776642c16.901337,0 33.16658,10.667236 47.43277,28.776642c14.084427,17.117157 29.80452,27.288239 46.251495,27.288239c16.265259,0 31.985367,-10.171082 45.978882,-27.288239c14.357086,-18.109406 30.531464,-28.776642 47.523682,-28.776642c16.810455,0 32.984863,10.667236 47.432739,28.776642c13.993591,17.117157 29.804504,27.288239 46.069763,27.288239c16.35614,0 32.167023,-10.171082 46.069794,-27.288239c14.447906,-18.109406 30.622314,-28.776642 47.614471,-28.776642c16.810455,0 32.984863,10.667236 47.341919,28.776642c14.084412,17.117157 29.804565,27.288239 46.160645,27.288239c16.35614,0 31.985291,-10.171082 46.160645,-27.288239c14.266113,-18.109406 30.531372,-28.776642 47.341919,-28.776642c16.992126,0 33.075684,10.667236 47.614441,28.776642c13.90271,17.117157 29.622681,27.288239 45.888062,27.288239l-1,50.537415z" fill-rule="nonzero" fill="#0000ff" id="path7014"/>
 </g>
</svg>